<svg width="180" height="180" viewBox="0 0 180 180" fill="none" xmlns="http://www.w3.org/2000/svg">
  <rect width="180" height="180" rx="36" fill="#3B82F6"/>
  <path d="M90 36C120.183 36 144 59.8172 144 90C144 120.183 120.183 144 90 144C59.8172 144 36 120.183 36 90C36 59.8172 59.8172 36 90 36ZM90 48C66.118 48 48 66.118 48 90C48 113.882 66.118 132 90 132C113.882 132 132 113.882 132 90C132 66.118 113.882 48 90 48Z" fill="white"/>
  <path d="M78 60H102V78H78V60ZM78 84H102V108H78V84Z" fill="white"/>
  <circle cx="90" cy="90" r="12" fill="white"/>
</svg> 