<svg xmlns="http://www.w3.org/2000/svg" width="1024" height="1024" viewBox="0 0 1024 1024">
  <defs>
    <linearGradient id="bg" x1="0" y1="0" x2="1" y2="1">
      <stop offset="0%" stop-color="#1F3B73"/>
      <stop offset="100%" stop-color="#0B1634"/>
    </linearGradient>
    <filter id="shadow" x="-20%" y="-20%" width="140%" height="140%">
      <feDropShadow dx="0" dy="22" stdDeviation="20" flood-color="#000000" flood-opacity="0.35"/>
    </filter>
  </defs>

  <rect x="64" y="64" width="896" height="896" rx="220" fill="url(#bg)" filter="url(#shadow)"/>

  <path d="M310 282
           a44 44 0 0 1 44 44
           v360
           h320
           a44 44 0 0 1 0 88
           H354
           a44 44 0 0 1-44-44
           V326
           a44 44 0 0 1 44-44z"
        fill="#FFFFFF"/>

  <path d="M690 300
           l54 54
           l118-118
           a30 30 0 0 1 42 42
           L765 420
           a30 30 0 0 1-42 0
           l-75-75
           a30 30 0 0 1 42-45z"
        fill="#FFFFFF" opacity="0.98"/>
</svg>
