<svg width="192" height="192" viewBox="0 0 192 192" fill="none" xmlns="http://www.w3.org/2000/svg">
  <rect width="192" height="192" rx="24" fill="#3B82F6"/>
  <path d="M96 48C120.183 48 140 67.8172 140 92C140 116.183 120.183 136 96 136C71.8172 136 52 116.183 52 92C52 67.8172 71.8172 48 96 48ZM96 56C76.118 56 60 72.118 60 92C60 111.882 76.118 128 96 128C115.882 128 132 111.882 132 92C132 72.118 115.882 56 96 56Z" fill="white"/>
  <path d="M88 80H104V104H88V80ZM88 112H104V120H88V112Z" fill="white"/>
  <circle cx="96" cy="92" r="8" fill="white"/>
</svg> 